<svg xmlns="http://www.w3.org/2000/svg" viewBox="0 0 44 44" fill="none">
  <defs>
    <linearGradient id="bg" x1="0" y1="0" x2="44" y2="44" gradientUnits="userSpaceOnUse">
      <stop stop-color="#16a34a"/>
      <stop offset="1" stop-color="#14532d"/>
    </linearGradient>
    <linearGradient id="face" x1="12" y1="14" x2="32" y2="36" gradientUnits="userSpaceOnUse">
      <stop stop-color="#ffffff"/>
      <stop offset="1" stop-color="#f0fdf4"/>
    </linearGradient>
  </defs>
  <rect width="44" height="44" rx="11" fill="url(#bg)"/>
  <!-- Horns -->
  <path d="M14.5 18 C13 13.5 11 9 14.5 7" stroke="white" stroke-width="2.4" stroke-linecap="round" fill="none" opacity="0.9"/>
  <path d="M29.5 18 C31 13.5 33 9 29.5 7" stroke="white" stroke-width="2.4" stroke-linecap="round" fill="none" opacity="0.9"/>
  <!-- Ears -->
  <ellipse cx="10.5" cy="22" rx="2.8" ry="3.8" fill="white" opacity="0.92"/>
  <ellipse cx="10.5" cy="22.5" rx="1.3" ry="2.1" fill="#fca5a5" opacity="0.55"/>
  <ellipse cx="33.5" cy="22" rx="2.8" ry="3.8" fill="white" opacity="0.92"/>
  <ellipse cx="33.5" cy="22.5" rx="1.3" ry="2.1" fill="#fca5a5" opacity="0.55"/>
  <!-- Face -->
  <circle cx="22" cy="24" r="11" fill="url(#face)"/>
  <!-- Eyes -->
  <circle cx="18" cy="21.5" r="2.1" fill="#14532d"/>
  <circle cx="26" cy="21.5" r="2.1" fill="#14532d"/>
  <circle cx="18.8" cy="20.8" r="0.75" fill="white"/>
  <circle cx="26.8" cy="20.8" r="0.75" fill="white"/>
  <!-- Snout -->
  <ellipse cx="22" cy="29" rx="5" ry="3.2" fill="#bbf7d0"/>
  <ellipse cx="20.1" cy="29.4" rx="1.15" ry="0.9" fill="#15803d" opacity="0.45"/>
  <ellipse cx="23.9" cy="29.4" rx="1.15" ry="0.9" fill="#15803d" opacity="0.45"/>
  <!-- Amber sparkle -->
  <circle cx="36" cy="8" r="1.8" fill="#fcd34d" opacity="0.9"/>
  <circle cx="36" cy="8" r="0.8" fill="#fbbf24"/>
</svg>
